<svg width="87" height="90" viewBox="0 0 87 90" fill="none" xmlns="http://www.w3.org/2000/svg">
<path d="M43.8981 0.972731C38.2338 0.962041 32.6232 2.10682 27.3884 4.34132C22.1537 6.57583 17.398 9.85606 13.3944 13.9937C-3.4244 31.3609 -3.4244 59.6115 13.4001 76.9787C30.2189 94.3399 57.5774 94.3399 74.3961 76.9787C91.2091 59.6115 91.2091 31.3609 74.3961 13.9937C70.3948 9.85616 65.6411 6.57589 60.4082 4.34133C55.1754 2.10677 49.5665 0.96198 43.9039 0.972731H43.8981ZM43.8981 6.87461C53.4546 6.87461 63.0111 10.6449 70.3251 18.1915C73.8012 21.773 76.559 26.0274 78.4407 30.711C80.3224 35.3946 81.2909 40.4155 81.2909 45.4862C81.2909 50.5568 80.3224 55.5777 78.4407 60.2613C76.559 64.9449 73.8012 69.1993 70.3251 72.7809C66.8567 76.3703 62.7366 79.2181 58.2009 81.1611C53.6652 83.1041 48.8029 84.1043 43.8924 84.1043C38.9818 84.1043 34.1195 83.1041 29.5838 81.1611C25.0481 79.2181 20.9281 76.3703 17.4596 72.7809C13.9835 69.1993 11.2257 64.9449 9.344 60.2613C7.46233 55.5777 6.49376 50.5568 6.49376 45.4862C6.49376 40.4155 7.46233 35.3946 9.344 30.711C11.2257 26.0274 13.9835 21.773 17.4596 18.1915C20.927 14.5994 25.0477 11.7503 29.585 9.80818C34.1222 7.86603 38.9865 6.86907 43.8981 6.87461ZM60.9181 33.6052C60.3736 33.6581 59.855 33.8703 59.4231 34.2168L38.4126 50.4856L28.6779 40.4393C28.4126 40.1558 28.0954 39.9296 27.7446 39.774C27.3939 39.6184 27.0166 39.5365 26.6349 39.5331C26.2531 39.5297 25.8746 39.6048 25.5212 39.754C25.1679 39.9033 24.8469 40.1238 24.577 40.4025C24.307 40.6812 24.0935 41.0127 23.949 41.3776C23.8044 41.7424 23.7317 42.1333 23.735 42.5275C23.7383 42.9217 23.8176 43.3113 23.9683 43.6735C24.119 44.0357 24.338 44.3633 24.6126 44.6371L36.1126 56.5121C36.6014 57.0171 37.25 57.3232 37.9396 57.3745C38.6292 57.4257 39.3136 57.2186 39.8674 56.7912L62.8674 38.9787C63.3547 38.6119 63.718 38.0961 63.9059 37.5043C64.0937 36.9126 64.0966 36.2748 63.9141 35.6813C63.7316 35.0877 63.373 34.5685 62.889 34.197C62.405 33.8255 61.8201 33.6205 61.2171 33.6112C61.1194 33.606 61.0215 33.606 60.9239 33.6112L60.9181 33.6052Z" fill="#C1FD35"/>
</svg>
